# xmcd
#
# Track frame offsets: 
#        150
#        2510
#        19662
#        37732
#        53412
#        74867
#        90225
#        112627
#        124095
#        141690
#        160692
#        180300
#        200767
#
# Disc length: 2950 seconds
#
# Revision: 5
# Processed by: cddbd v1.5.2PL0 Copyright (c) Steve Scherf et al.
# Submitted via: ExactAudioCopy v1.0b3
#
DISCID=9d0b840d
DTITLE=松たか子 - 空の鏡
DYEAR=1997
DGENRE=JPop
TTITLE0=Introduction ～ガールフレンド
TTITLE1=Hello Goodbye
TTITLE2=I STAND ALONE
TTITLE3=lovesick
TTITLE4=空の鏡
TTITLE5=After the rain
TTITLE6=ずっと…いようよ
TTITLE7=a piano piece for Carol
TTITLE8=東京バード
TTITLE9=からいかれ
TTITLE10=明日,春が来たら
TTITLE11=Wind Song ～Album Version～
TTITLE12=Girlfriend～Angels of our time
EXTD=YEAR: 1997
EXTT0=
EXTT1=
EXTT2=
EXTT3=
EXTT4=
EXTT5=
EXTT6=
EXTT7=
EXTT8=
EXTT9=
EXTT10=
EXTT11=
EXTT12=
PLAYORDER=
